<?xml version="1.0" encoding="UTF-8" standalone="no"?>
<!DOCTYPE svg PUBLIC "-//W3C//DTD SVG 1.1//EN" "http://www.w3.org/Graphics/SVG/1.1/DTD/svg11.dtd">
<svg width="100%" height="100%" viewBox="0 0 65 19" version="1.1" xmlns="http://www.w3.org/2000/svg" xmlns:xlink="http://www.w3.org/1999/xlink" xml:space="preserve" xmlns:serif="http://www.serif.com/" style="fill-rule:evenodd;clip-rule:evenodd;stroke-linejoin:round;stroke-miterlimit:2;">
    <g transform="matrix(1,0,0,1,-1.11241,-0.0004)">
        <g transform="matrix(1,0,0,1,-19.2767,71.1169)">
            <g transform="matrix(0.883736,0,0,0.888859,-0.924867,-89.5785)">
                <path d="M95.788,24.647L95.788,24.056L91.496,24.056L91.496,24.647L95.788,24.647ZM91.887,21.139L91.887,23.754L95.395,23.754L95.395,21.139L91.887,21.139Z" style="fill:rgb(136,58,226);"/>
            </g>
        </g>
        <g transform="matrix(1,0,0,1,-19.2767,71.1169)">
            <g transform="matrix(1,0,0,1,0,-82.1365)">
                <path d="M26.397,19.507L31.34,11.392L32.263,11.392L32.263,23.605L30.959,23.605L30.959,14.24L26.858,20.969L25.935,20.969L21.835,14.24L21.835,23.605L20.53,23.605L20.53,11.392L21.453,11.392L26.397,19.507Z" style="fill:rgb(136,58,226);fill-rule:nonzero;"/>
            </g>
        </g>
        <g transform="matrix(1,0,0,1,-19.2767,71.1169)">
            <g transform="matrix(1,0,0,1,0,-82.1365)">
                <path d="M41.866,22.208C41.841,22.25 41.814,22.291 41.786,22.331C41.473,22.79 41.066,23.146 40.566,23.401C40.066,23.655 39.499,23.782 38.866,23.782C38.079,23.782 37.372,23.591 36.745,23.21C36.118,22.828 35.622,22.31 35.259,21.657C34.895,21.003 34.713,20.268 34.713,19.451C34.713,18.629 34.895,17.889 35.259,17.232C35.622,16.575 36.117,16.053 36.741,15.666C37.365,15.278 38.068,15.084 38.849,15.084C39.488,15.084 40.059,15.212 40.562,15.466C41.064,15.721 41.474,16.076 41.791,16.531C41.817,16.569 41.842,16.606 41.866,16.645C41.866,16.645 41.915,16.723 41.866,16.645L41.866,15.262L43.118,15.262L43.118,23.605L41.866,23.605L41.866,22.208C42.133,21.779 41.866,22.208 41.866,22.208ZM39.062,22.602C39.931,22.602 40.628,22.31 41.152,21.728C41.675,21.145 41.937,20.383 41.937,19.442C41.937,18.809 41.817,18.254 41.578,17.778C41.338,17.302 41.001,16.931 40.566,16.664C40.131,16.398 39.624,16.265 39.044,16.265C38.452,16.265 37.929,16.401 37.473,16.673C37.017,16.945 36.658,17.32 36.395,17.796C36.131,18.272 36,18.818 36,19.433C36,20.049 36.131,20.594 36.395,21.071C36.658,21.547 37.02,21.921 37.482,22.194C37.943,22.466 38.47,22.602 39.062,22.602Z" style="fill:rgb(136,58,226);fill-rule:nonzero;"/>
            </g>
        </g>
        <g transform="matrix(1,0,0,1,-19.2767,71.1169)">
            <g transform="matrix(1,0,0,1,0,-82.1365)">
                <path d="M52.42,16.657L52.42,11.037L53.672,11.037L53.672,23.605L52.42,23.605L52.42,22.19C52.693,21.763 52.42,22.19 52.42,22.19C52.392,22.235 52.362,22.279 52.332,22.322C52.006,22.781 51.587,23.139 51.076,23.396C50.564,23.653 49.991,23.782 49.358,23.782C48.583,23.782 47.888,23.591 47.273,23.21C46.658,22.829 46.171,22.311 45.813,21.657C45.455,21.003 45.276,20.267 45.276,19.449C45.276,18.619 45.455,17.877 45.813,17.221C46.171,16.566 46.658,16.046 47.275,15.661C47.893,15.277 48.587,15.084 49.358,15.084C49.98,15.084 50.546,15.21 51.058,15.462C51.57,15.713 51.993,16.067 52.327,16.522C52.359,16.566 52.39,16.611 52.42,16.657C52.42,16.657 52.487,16.758 52.42,16.657ZM49.571,22.602C50.151,22.602 50.66,22.467 51.097,22.196C51.534,21.926 51.876,21.553 52.122,21.078C52.368,20.603 52.491,20.058 52.491,19.442C52.491,18.813 52.366,18.261 52.117,17.786C51.867,17.311 51.522,16.939 51.083,16.67C50.643,16.4 50.132,16.265 49.549,16.265C48.966,16.265 48.452,16.4 48.006,16.67C47.559,16.941 47.207,17.314 46.949,17.789C46.692,18.265 46.563,18.813 46.563,19.433C46.563,20.049 46.691,20.596 46.948,21.075C47.205,21.554 47.561,21.928 48.015,22.198C48.47,22.467 48.988,22.602 49.571,22.602Z" style="fill:rgb(136,58,226);fill-rule:nonzero;"/>
            </g>
        </g>
        <g transform="matrix(1,0,0,1,-19.2767,71.1169)">
            <g transform="matrix(1,0,0,1,0,-82.1365)">
                <path d="M59.398,15.826L63.924,15.826L63.924,11.02L67.097,11.02L67.097,23.605L63.924,23.605L63.924,18.501L59.398,18.501L59.398,23.605L56.225,23.605L56.225,11.02L59.398,11.02L59.398,15.826Z" style="fill:rgb(26,10,61);fill-rule:nonzero;"/>
            </g>
        </g>
        <g transform="matrix(1,0,0,1,-19.2767,71.1169)">
            <g transform="matrix(1,0,0,1,0,-82.1365)">
                <path d="M74.632,23.019C74.412,23.205 74.16,23.36 73.875,23.485C73.424,23.683 72.926,23.782 72.382,23.782C71.577,23.782 70.862,23.587 70.236,23.196C69.611,22.806 69.12,22.272 68.763,21.594C68.407,20.917 68.228,20.142 68.228,19.269C68.228,18.393 68.407,17.615 68.763,16.933C69.12,16.251 69.611,15.716 70.236,15.329C70.862,14.941 71.577,14.747 72.382,14.747C72.926,14.747 73.423,14.846 73.873,15.045C74.158,15.17 74.411,15.326 74.632,15.513C74.632,15.513 74.76,15.622 74.632,15.513L74.632,14.925L77.663,14.925L77.663,23.605L74.632,23.605L74.632,23.019C74.761,22.91 74.632,23.019 74.632,23.019ZM73.048,21.031C73.557,21.031 73.966,20.866 74.277,20.536C74.588,20.206 74.743,19.782 74.743,19.265C74.743,18.916 74.673,18.61 74.534,18.348C74.395,18.087 74.199,17.879 73.944,17.727C73.69,17.575 73.395,17.499 73.061,17.499C72.73,17.499 72.437,17.575 72.182,17.727C71.928,17.879 71.726,18.089 71.577,18.355C71.427,18.621 71.353,18.924 71.353,19.265C71.353,19.605 71.425,19.908 71.57,20.174C71.715,20.441 71.917,20.65 72.176,20.802C72.435,20.955 72.725,21.031 73.048,21.031Z" style="fill:rgb(26,10,61);fill-rule:nonzero;"/>
            </g>
        </g>
        <g transform="matrix(1,0,0,1,-19.2767,71.1169)">
            <g transform="matrix(1,0,0,1,19.2767,-85.177)">
                <path d="M2.984,32.252C2.717,32.252 2.47,32.203 2.242,32.106C2.014,32.008 1.815,31.872 1.645,31.696C1.476,31.52 1.345,31.316 1.252,31.083C1.159,30.851 1.112,30.601 1.112,30.334C1.112,30.065 1.158,29.815 1.25,29.583C1.342,29.352 1.473,29.149 1.641,28.976C1.81,28.803 2.007,28.667 2.234,28.569C2.46,28.471 2.706,28.422 2.971,28.422C3.255,28.422 3.511,28.472 3.736,28.573C3.961,28.674 4.159,28.813 4.328,28.99L4.055,29.263C3.927,29.119 3.771,29.006 3.587,28.925C3.403,28.844 3.198,28.803 2.971,28.803C2.761,28.803 2.569,28.841 2.393,28.917C2.217,28.992 2.064,29.099 1.933,29.237C1.803,29.375 1.702,29.537 1.63,29.724C1.559,29.911 1.524,30.114 1.524,30.334C1.524,30.554 1.56,30.758 1.632,30.945C1.704,31.133 1.805,31.296 1.935,31.435C2.064,31.574 2.218,31.681 2.396,31.757C2.573,31.832 2.767,31.87 2.976,31.87C3.214,31.87 3.426,31.829 3.612,31.746C3.797,31.663 3.954,31.549 4.082,31.405L4.355,31.678C4.188,31.857 3.988,31.997 3.758,32.099C3.527,32.201 3.269,32.252 2.984,32.252Z" style="fill:rgb(26,10,61);"/>
            </g>
        </g>
        <g transform="matrix(1,0,0,1,-19.2767,71.1169)">
            <g transform="matrix(1,0,0,1,19.2767,-85.177)">
                <path d="M24.985,32.252C24.717,32.252 24.477,32.191 24.266,32.07C24.054,31.95 23.887,31.784 23.764,31.574C23.642,31.364 23.581,31.126 23.581,30.861L23.581,28.476L23.978,28.476L23.978,30.842C23.978,31.052 24.023,31.233 24.111,31.388C24.199,31.542 24.32,31.661 24.472,31.745C24.625,31.828 24.796,31.87 24.985,31.87C25.178,31.87 25.349,31.828 25.498,31.745C25.648,31.661 25.766,31.542 25.854,31.388C25.942,31.234 25.985,31.054 25.985,30.848L25.985,28.476L26.383,28.476L26.383,30.867C26.383,31.132 26.322,31.368 26.201,31.577C26.079,31.785 25.913,31.95 25.703,32.07C25.493,32.191 25.254,32.252 24.985,32.252Z" style="fill:rgb(26,10,61);"/>
            </g>
        </g>
        <g transform="matrix(1,0,0,1,-19.2767,71.1169)">
            <g transform="matrix(1,0,0,1,19.2767,-85.177)">
                <path d="M64.796,32.252C64.506,32.252 64.256,32.197 64.047,32.088C63.837,31.979 63.654,31.824 63.498,31.624L63.771,31.354C63.899,31.532 64.047,31.665 64.214,31.751C64.382,31.838 64.581,31.881 64.812,31.881C65.05,31.881 65.243,31.827 65.39,31.719C65.537,31.611 65.61,31.461 65.61,31.27C65.61,31.12 65.576,30.998 65.509,30.903C65.441,30.809 65.352,30.731 65.241,30.671C65.13,30.61 65.008,30.557 64.876,30.51C64.743,30.463 64.611,30.413 64.478,30.361C64.346,30.309 64.224,30.243 64.113,30.165C64.002,30.086 63.913,29.985 63.845,29.862C63.778,29.738 63.744,29.581 63.744,29.39C63.744,29.19 63.792,29.018 63.89,28.873C63.987,28.729 64.121,28.618 64.29,28.539C64.46,28.461 64.653,28.422 64.869,28.422C65.111,28.422 65.326,28.469 65.517,28.562C65.707,28.656 65.865,28.783 65.991,28.944L65.718,29.214C65.603,29.075 65.477,28.97 65.34,28.899C65.202,28.828 65.043,28.792 64.861,28.792C64.644,28.792 64.471,28.843 64.34,28.944C64.209,29.045 64.144,29.185 64.144,29.366C64.144,29.504 64.178,29.617 64.245,29.704C64.313,29.79 64.402,29.862 64.513,29.92C64.624,29.978 64.746,30.03 64.878,30.076C65.011,30.122 65.143,30.172 65.276,30.226C65.408,30.28 65.53,30.348 65.641,30.43C65.752,30.512 65.841,30.617 65.909,30.746C65.976,30.875 66.01,31.038 66.01,31.235C66.01,31.557 65.901,31.808 65.683,31.985C65.465,32.163 65.169,32.252 64.796,32.252Z" style="fill:rgb(26,10,61);"/>
            </g>
        </g>
        <g transform="matrix(1,0,0,1,-19.2767,71.1169)">
            <g transform="matrix(1,0,0,1,19.2767,-85.177)">
                <path d="M37.924,32.252C37.657,32.252 37.41,32.203 37.182,32.106C36.954,32.008 36.755,31.872 36.585,31.696C36.416,31.52 36.285,31.316 36.192,31.083C36.099,30.851 36.052,30.601 36.052,30.334C36.052,30.065 36.098,29.815 36.19,29.583C36.282,29.352 36.413,29.149 36.581,28.976C36.75,28.803 36.947,28.667 37.174,28.569C37.4,28.471 37.646,28.422 37.911,28.422C38.196,28.422 38.451,28.472 38.676,28.573C38.901,28.674 39.099,28.813 39.268,28.99L38.995,29.263C38.867,29.119 38.711,29.006 38.527,28.925C38.343,28.844 38.138,28.803 37.911,28.803C37.701,28.803 37.509,28.841 37.333,28.917C37.157,28.992 37.004,29.099 36.873,29.237C36.743,29.375 36.642,29.537 36.57,29.724C36.499,29.911 36.464,30.114 36.464,30.334C36.464,30.554 36.5,30.758 36.572,30.945C36.644,31.133 36.745,31.296 36.875,31.435C37.005,31.574 37.158,31.681 37.336,31.757C37.513,31.832 37.707,31.87 37.916,31.87C38.154,31.87 38.366,31.829 38.552,31.746C38.737,31.663 38.894,31.549 39.022,31.405L39.295,31.678C39.128,31.857 38.928,31.997 38.698,32.099C38.467,32.201 38.209,32.252 37.924,32.252Z" style="fill:rgb(26,10,61);"/>
            </g>
        </g>
        <g transform="matrix(1,0,0,1,-19.2767,71.1169)">
            <g transform="matrix(1,0,0,1,19.2767,-85.177)">
                <rect x="50.523" y="28.476" width="0.398" height="3.722" style="fill:rgb(26,10,61);"/>
            </g>
        </g>
        <g transform="matrix(1,0,0,1,-19.2767,71.1169)">
            <g transform="matrix(1,0,0,1,19.2767,-85.177)">
                <rect x="33.64" y="28.476" width="0.398" height="3.722" style="fill:rgb(26,10,61);"/>
            </g>
        </g>
        <g transform="matrix(1,0,0,1,-19.2767,71.1169)">
            <g transform="matrix(1,0,0,1,19.2767,-85.177)">
                <path d="M19.572,30.949L21.079,28.476L21.36,28.476L21.36,32.197L20.963,32.197L20.963,29.343L19.713,31.394L19.432,31.394L18.182,29.343L18.182,32.197L17.785,32.197L17.785,28.476L18.066,28.476L19.572,30.949Z" style="fill:rgb(26,10,61);"/>
            </g>
        </g>
        <g transform="matrix(1,0,0,1,-19.2767,71.1169)">
            <g transform="matrix(1,0,0,1,19.2767,-85.177)">
                <path d="M13.73,30.949L15.237,28.476L15.518,28.476L15.518,32.197L15.12,32.197L15.12,29.343L13.871,31.394L13.589,31.394L12.34,29.343L12.34,32.197L11.942,32.197L11.942,28.476L12.224,28.476L13.73,30.949Z" style="fill:rgb(26,10,61);"/>
            </g>
        </g>
        <g transform="matrix(1,0,0,1,-19.2767,71.1169)">
            <g transform="matrix(1,0,0,1,19.2767,-83.1726)">
                <path d="M42.687,27.101L42.688,27.099L43.397,28.876L41.973,28.876L43.396,28.876L42.687,27.101Z" style="fill:rgb(26,10,61);"/>
            </g>
        </g>
        <g transform="matrix(1,0,0,1,-19.2767,71.1169)">
            <g transform="matrix(1,0,0,1,19.2767,-83.1726)">
                <path d="M7.98,30.247C7.717,30.247 7.472,30.198 7.245,30.1C7.019,30.002 6.821,29.865 6.652,29.689C6.482,29.513 6.35,29.309 6.255,29.076C6.161,28.843 6.113,28.594 6.113,28.327C6.113,28.058 6.16,27.808 6.254,27.578C6.348,27.347 6.479,27.144 6.648,26.97C6.816,26.796 7.013,26.661 7.237,26.563C7.462,26.466 7.706,26.417 7.969,26.417C8.232,26.417 8.477,26.466 8.702,26.563C8.927,26.661 9.124,26.796 9.293,26.97C9.462,27.144 9.593,27.348 9.688,27.58C9.782,27.813 9.83,28.064 9.83,28.332C9.83,28.599 9.783,28.849 9.689,29.081C9.595,29.314 9.464,29.517 9.296,29.691C9.127,29.865 8.931,30.002 8.707,30.1C8.484,30.198 8.241,30.247 7.98,30.247ZM7.969,29.866C8.25,29.866 8.5,29.799 8.717,29.666C8.934,29.532 9.105,29.35 9.231,29.118C9.356,28.886 9.419,28.623 9.419,28.327C9.419,28.107 9.383,27.904 9.311,27.718C9.238,27.533 9.137,27.371 9.008,27.233C8.878,27.095 8.725,26.988 8.549,26.912C8.373,26.837 8.18,26.799 7.969,26.799C7.689,26.799 7.441,26.864 7.224,26.996C7.007,27.128 6.836,27.309 6.711,27.538C6.587,27.768 6.525,28.031 6.525,28.327C6.525,28.547 6.561,28.751 6.633,28.939C6.705,29.128 6.805,29.291 6.934,29.429C7.063,29.567 7.216,29.674 7.393,29.751C7.57,29.828 7.762,29.866 7.969,29.866Z" style="fill:rgb(26,10,61);"/>
            </g>
        </g>
        <g transform="matrix(1,0,0,1,-19.2767,71.1169)">
            <g transform="matrix(1,0,0,1,19.2767,-83.1726)">
                <path d="M43.536,29.224L41.833,29.225L41.443,30.193L41.021,30.193L42.544,26.471L42.841,26.471L44.353,30.193L43.923,30.193L43.536,29.224ZM41.972,28.876L43.397,28.876L42.688,27.099L42.687,27.101L42.687,27.099L41.972,28.876Z" style="fill:rgb(26,10,61);"/>
            </g>
        </g>
        <g transform="matrix(1,0,0,1,-19.2767,71.1169)">
            <g transform="matrix(1,0,0,1,19.2767,-83.1726)">
                <path d="M46.723,26.834L45.411,26.834L45.411,26.471L48.432,26.471L48.432,26.834L47.12,26.834L47.12,30.193L46.723,30.193L46.723,26.834Z" style="fill:rgb(26,10,61);"/>
            </g>
        </g>
        <g transform="matrix(1,0,0,1,-19.2767,71.1169)">
            <g transform="matrix(1,0,0,1,19.2767,-83.1726)">
                <path d="M54.799,30.247C54.536,30.247 54.291,30.198 54.065,30.1C53.838,30.002 53.641,29.865 53.471,29.689C53.302,29.513 53.169,29.309 53.075,29.076C52.98,28.843 52.933,28.594 52.933,28.327C52.933,28.058 52.98,27.808 53.073,27.578C53.167,27.347 53.298,27.144 53.467,26.97C53.636,26.796 53.832,26.661 54.057,26.563C54.281,26.466 54.525,26.417 54.788,26.417C55.052,26.417 55.296,26.466 55.521,26.563C55.747,26.661 55.944,26.796 56.112,26.97C56.281,27.144 56.412,27.348 56.507,27.58C56.602,27.813 56.649,28.064 56.649,28.332C56.649,28.599 56.602,28.849 56.508,29.081C56.415,29.314 56.284,29.517 56.115,29.691C55.946,29.865 55.75,30.002 55.527,30.1C55.303,30.198 55.061,30.247 54.799,30.247ZM54.788,29.866C55.07,29.866 55.319,29.799 55.536,29.666C55.753,29.532 55.925,29.35 56.05,29.118C56.175,28.886 56.238,28.623 56.238,28.327C56.238,28.107 56.202,27.904 56.13,27.718C56.058,27.533 55.957,27.371 55.827,27.233C55.697,27.095 55.544,26.988 55.368,26.912C55.193,26.837 54.999,26.799 54.788,26.799C54.509,26.799 54.26,26.864 54.043,26.996C53.826,27.128 53.655,27.309 53.531,27.538C53.406,27.768 53.344,28.031 53.344,28.327C53.344,28.547 53.38,28.751 53.452,28.939C53.524,29.128 53.625,29.291 53.754,29.429C53.883,29.567 54.035,29.674 54.212,29.751C54.389,29.828 54.581,29.866 54.788,29.866Z" style="fill:rgb(26,10,61);"/>
            </g>
        </g>
        <g transform="matrix(1,0,0,1,-19.2767,71.1169)">
            <g transform="matrix(1,0,0,1,19.2767,-83.1726)">
                <path d="M61.336,30.193L59.159,27.237L59.159,30.193L58.762,30.193L58.762,26.471L59.043,26.471L61.22,29.428L61.22,26.471L61.618,26.471L61.618,30.193L61.336,30.193Z" style="fill:rgb(26,10,61);"/>
            </g>
        </g>
        <g transform="matrix(1,0,0,1,-19.2767,71.1169)">
            <g transform="matrix(1,0,0,1,19.2767,-83.1726)">
                <path d="M31.135,30.193L28.958,27.237L28.958,30.193L28.56,30.193L28.56,26.471L28.842,26.471L31.019,29.428L31.019,26.471L31.416,26.471L31.416,30.193L31.135,30.193Z" style="fill:rgb(26,10,61);"/>
            </g>
        </g>
        <g transform="matrix(1,0,0,1,-19.2767,71.1169)">
            <g transform="matrix(1,0,0,1,0,-82.1365)">
                <path d="M78.373,14.925L85.287,14.925L85.287,17.499L83.378,17.499L83.378,23.605L80.281,23.605L80.281,17.499L78.373,17.499L78.373,14.925ZM83.378,13.677L80.281,13.677L80.281,11.348L83.378,11.348L83.378,13.677Z" style="fill:rgb(136,58,226);fill-rule:nonzero;"/>
            </g>
        </g>
        <g transform="matrix(1,0,0,1,-19.2767,71.1169)">
            <g transform="matrix(1,0,0,1,0,-82.1365)">
                <path d="M78.373,14.925L85.287,14.925L85.287,17.499L83.378,17.499L83.378,23.605L80.281,23.605L80.281,17.499L78.373,17.499L78.373,14.925Z" style="fill:rgb(26,10,61);fill-rule:nonzero;"/>
            </g>
        </g>
    </g>
</svg>
