<?xml version="1.0" encoding="UTF-8" standalone="no"?>
<!DOCTYPE svg PUBLIC "-//W3C//DTD SVG 1.1//EN" "http://www.w3.org/Graphics/SVG/1.1/DTD/svg11.dtd">
<svg width="100%" height="100%" viewBox="0 0 67 20" version="1.1" xmlns="http://www.w3.org/2000/svg" xmlns:xlink="http://www.w3.org/1999/xlink" xml:space="preserve" xmlns:serif="http://www.serif.com/" style="fill-rule:evenodd;clip-rule:evenodd;stroke-linejoin:round;stroke-miterlimit:2;">
    <g transform="matrix(1,0,0,1,-19.2767,71.1169)">
        <g transform="matrix(0.883736,0,0,0.888859,-0.924867,-89.5785)">
            <path d="M95.788,24.647L95.788,24.056L91.496,24.056L91.496,24.647L95.788,24.647ZM91.887,21.139L91.887,23.754L95.395,23.754L95.395,21.139L91.887,21.139Z" style="fill:rgb(136,58,226);"/>
        </g>
        <g transform="matrix(1,0,0,1,0,-82.1365)">
            <path d="M26.397,19.507L31.34,11.392L32.263,11.392L32.263,23.605L30.959,23.605L30.959,14.24L26.858,20.969L25.935,20.969L21.835,14.24L21.835,23.605L20.53,23.605L20.53,11.392L21.453,11.392L26.397,19.507Z" style="fill:rgb(136,58,226);fill-rule:nonzero;"/>
        </g>
        <g transform="matrix(1,0,0,1,0,-82.1365)">
            <path d="M41.866,22.208C41.841,22.25 41.814,22.291 41.786,22.331C41.473,22.79 41.066,23.146 40.566,23.401C40.066,23.655 39.499,23.782 38.866,23.782C38.079,23.782 37.372,23.591 36.745,23.21C36.118,22.828 35.622,22.31 35.259,21.657C34.895,21.003 34.713,20.268 34.713,19.451C34.713,18.629 34.895,17.889 35.259,17.232C35.622,16.575 36.117,16.053 36.741,15.666C37.365,15.278 38.068,15.084 38.849,15.084C39.488,15.084 40.059,15.212 40.562,15.466C41.064,15.721 41.474,16.076 41.791,16.531C41.817,16.569 41.842,16.606 41.866,16.645C41.866,16.645 41.915,16.723 41.866,16.645L41.866,15.262L43.118,15.262L43.118,23.605L41.866,23.605L41.866,22.208C42.133,21.779 41.866,22.208 41.866,22.208ZM39.062,22.602C39.931,22.602 40.628,22.31 41.152,21.728C41.675,21.145 41.937,20.383 41.937,19.442C41.937,18.809 41.817,18.254 41.578,17.778C41.338,17.302 41.001,16.931 40.566,16.664C40.131,16.398 39.624,16.265 39.044,16.265C38.452,16.265 37.929,16.401 37.473,16.673C37.017,16.945 36.658,17.32 36.395,17.796C36.131,18.272 36,18.818 36,19.433C36,20.049 36.131,20.594 36.395,21.071C36.658,21.547 37.02,21.921 37.482,22.194C37.943,22.466 38.47,22.602 39.062,22.602Z" style="fill:rgb(136,58,226);fill-rule:nonzero;"/>
        </g>
        <g transform="matrix(1,0,0,1,0,-82.1365)">
            <path d="M52.42,16.657L52.42,11.037L53.672,11.037L53.672,23.605L52.42,23.605L52.42,22.19C52.693,21.763 52.42,22.19 52.42,22.19C52.392,22.235 52.362,22.279 52.332,22.322C52.006,22.781 51.587,23.139 51.076,23.396C50.564,23.653 49.991,23.782 49.358,23.782C48.583,23.782 47.888,23.591 47.273,23.21C46.658,22.829 46.171,22.311 45.813,21.657C45.455,21.003 45.276,20.267 45.276,19.449C45.276,18.619 45.455,17.877 45.813,17.221C46.171,16.566 46.658,16.046 47.275,15.661C47.893,15.277 48.587,15.084 49.358,15.084C49.98,15.084 50.546,15.21 51.058,15.462C51.57,15.713 51.993,16.067 52.327,16.522C52.359,16.566 52.39,16.611 52.42,16.657C52.42,16.657 52.487,16.758 52.42,16.657ZM49.571,22.602C50.151,22.602 50.66,22.467 51.097,22.196C51.534,21.926 51.876,21.553 52.122,21.078C52.368,20.603 52.491,20.058 52.491,19.442C52.491,18.813 52.366,18.261 52.117,17.786C51.867,17.311 51.522,16.939 51.083,16.67C50.643,16.4 50.132,16.265 49.549,16.265C48.966,16.265 48.452,16.4 48.006,16.67C47.559,16.941 47.207,17.314 46.949,17.789C46.692,18.265 46.563,18.813 46.563,19.433C46.563,20.049 46.691,20.596 46.948,21.075C47.205,21.554 47.561,21.928 48.015,22.198C48.47,22.467 48.988,22.602 49.571,22.602Z" style="fill:rgb(136,58,226);fill-rule:nonzero;"/>
        </g>
        <g transform="matrix(1,0,0,1,0,-82.1365)">
            <path d="M59.398,15.826L63.924,15.826L63.924,11.02L67.097,11.02L67.097,23.605L63.924,23.605L63.924,18.501L59.398,18.501L59.398,23.605L56.225,23.605L56.225,11.02L59.398,11.02L59.398,15.826Z" style="fill:rgb(26,10,61);fill-rule:nonzero;"/>
        </g>
        <g transform="matrix(1,0,0,1,0,-82.1365)">
            <path d="M74.632,23.019C74.412,23.205 74.16,23.36 73.875,23.485C73.424,23.683 72.926,23.782 72.382,23.782C71.577,23.782 70.862,23.587 70.236,23.196C69.611,22.806 69.12,22.272 68.763,21.594C68.407,20.917 68.228,20.142 68.228,19.269C68.228,18.393 68.407,17.615 68.763,16.933C69.12,16.251 69.611,15.716 70.236,15.329C70.862,14.941 71.577,14.747 72.382,14.747C72.926,14.747 73.423,14.846 73.873,15.045C74.158,15.17 74.411,15.326 74.632,15.513C74.632,15.513 74.76,15.622 74.632,15.513L74.632,14.925L77.663,14.925L77.663,23.605L74.632,23.605L74.632,23.019C74.761,22.91 74.632,23.019 74.632,23.019ZM73.048,21.031C73.557,21.031 73.966,20.866 74.277,20.536C74.588,20.206 74.743,19.782 74.743,19.265C74.743,18.916 74.673,18.61 74.534,18.348C74.395,18.087 74.199,17.879 73.944,17.727C73.69,17.575 73.395,17.499 73.061,17.499C72.73,17.499 72.437,17.575 72.182,17.727C71.928,17.879 71.726,18.089 71.577,18.355C71.427,18.621 71.353,18.924 71.353,19.265C71.353,19.605 71.425,19.908 71.57,20.174C71.715,20.441 71.917,20.65 72.176,20.802C72.435,20.955 72.725,21.031 73.048,21.031Z" style="fill:rgb(26,10,61);fill-rule:nonzero;"/>
        </g>
        <g transform="matrix(0.608062,0,0,0.608062,-41.8169,-192.471)">
            <text x="100px" y="231px" style="font-family:'Outfit-Thin_Light', 'Outfit';font-weight:100;font-size:8.835px;fill:rgb(26,10,61);">C</text>
            <text x="108.262px" y="231px" style="font-family:'Outfit-Thin_Light', 'Outfit';font-weight:100;font-size:8.835px;fill:rgb(26,10,61);">O <tspan x="117.699px 125.032px 127.463px 134.796px 137.226px 143.075px 145.506px 151.593px 154.024px " y="231px 231px 231px 231px 231px 231px 231px 231px 231px ">M M U N I</tspan></text>
            <text x="158.486px" y="231px" style="font-family:'Outfit-Thin_Light', 'Outfit';font-weight:100;font-size:8.835px;fill:rgb(26,10,61);">C</text>
            <text x="166.779px" y="231px" style="font-family:'Outfit-Thin_Light', 'Outfit';font-weight:100;font-size:8.835px;fill:rgb(26,10,61);">A</text>
            <text x="174.325px" y="231px" style="font-family:'Outfit-Thin_Light', 'Outfit';font-weight:100;font-size:8.835px;fill:rgb(26,10,61);">T <tspan x="182.445px 184.477px 186.908px " y="231px 231px 231px ">I O</tspan></text>
            <text x="196.345px" y="231px" style="font-family:'Outfit-Thin_Light', 'Outfit';font-weight:100;font-size:8.835px;fill:rgb(26,10,61);">N<tspan x="202.309px 204.591px " y="231px 231px "> S</tspan></text>
        </g>
        <g transform="matrix(1,0,0,1,0,-82.1365)">
            <path d="M78.373,14.925L85.287,14.925L85.287,17.499L83.378,17.499L83.378,23.605L80.281,23.605L80.281,17.499L78.373,17.499L78.373,14.925ZM83.378,13.677L80.281,13.677L80.281,11.348L83.378,11.348L83.378,13.677Z" style="fill:rgb(136,58,226);fill-rule:nonzero;"/>
        </g>
        <g transform="matrix(1,0,0,1,0,-82.1365)">
            <path d="M78.373,14.925L85.287,14.925L85.287,17.499L83.378,17.499L83.378,23.605L80.281,23.605L80.281,17.499L78.373,17.499L78.373,14.925Z" style="fill:rgb(26,10,61);fill-rule:nonzero;"/>
        </g>
    </g>
</svg>
